<?xml version="1.0" ?>
<!-- Uploaded to: SVG Repo, www.svgrepo.com, Generator: SVG Repo Mixer Tools -->
<svg width="800px" height="800px" viewBox="0 0 48 48" version="1.1" xml:space="preserve" xmlns="http://www.w3.org/2000/svg" xmlns:xlink="http://www.w3.org/1999/xlink">
<style type="text/css">
	.st0{fill:none;stroke:#000000;stroke-width:2;stroke-linecap:round;stroke-linejoin:round;stroke-miterlimit:10;}
</style>
<g id="Layer_3"/>
<g id="Layer_4"/>
<g id="Layer_5"/>
<g id="Layer_6"/>
<g id="Layer_7"/>
<g id="Layer_8"/>
<g id="Layer_9"/>
<g id="Layer_10"/>
<g id="Layer_11"/>
<g id="Layer_12"/>
<g id="Layer_13"/>
<g id="Layer_14"/>
<g id="Layer_15">
<g>
<path d="M24,43c-4.4,0-9-2.5-9-7c0-3.1,4.1-16.2,8.5-18.9c0.3-0.2,0.7-0.2,1,0C28.9,19.8,33,32.9,33,36C33,40.5,28.4,43,24,43z     M24,19.2c-3.3,2.9-7,13.9-7,16.8c0,3.2,3.6,5,7,5s7-1.8,7-5C31,33.2,27.3,22.1,24,19.2z"/>
<path d="M16,32c-0.1,0-0.2,0-0.3-0.1c-1.4-0.5-2-1.3-2.2-2c-0.7-1.6,0-3.4,0.4-4.1c0.8-1.5,5.3-8,8.9-8.9c0.5-0.1,1.1,0.2,1.2,0.7    c0.1,0.5-0.2,1.1-0.7,1.2c-2.6,0.7-6.8,6.1-7.6,7.8c-0.4,0.9-0.6,1.8-0.3,2.4c0.2,0.4,0.5,0.7,1,0.8c0.5,0.2,0.8,0.7,0.6,1.3    C16.8,31.7,16.4,32,16,32z"/>
<path d="M32,32c-0.4,0-0.8-0.3-0.9-0.7c-0.2-0.5,0.1-1.1,0.6-1.3c0.5-0.2,0.9-0.5,1-0.8c0.2-0.6,0.1-1.5-0.3-2.4    c-0.8-1.7-5.1-7.2-7.6-7.8c-0.5-0.1-0.9-0.7-0.7-1.2c0.1-0.5,0.7-0.9,1.2-0.7c3.6,0.9,8.2,7.3,8.9,8.9c0.3,0.7,1,2.4,0.4,4.1    c-0.3,0.6-0.9,1.5-2.2,2C32.2,32,32.1,32,32,32z"/>
<path d="M27,7h-4c-0.6,0-1-0.4-1-1s0.4-1,1-1h4c0.6,0,1,0.4,1,1S27.6,7,27,7z"/>
<path d="M24,19c-2.8,0-5-2.2-5-5s2.2-5,5-5s5,2.2,5,5S26.8,19,24,19z M24,11c-1.7,0-3,1.3-3,3s1.3,3,3,3s3-1.3,3-3S25.7,11,24,11z    "/>
<path d="M16,25c-2.3,0-3.7-1.5-4-4.1c-2.1-0.4-3.8-2.2-4-4.3C6.2,15.8,5,14,5,12c0-3.9,3.1-7,7-7c3.9,0,5.8,2.6,7.7,5    c0.3,0.4,0.7,0.9,1,1.3c0.3,0.4,0.3,1.1-0.1,1.4c-0.4,0.3-1.1,0.3-1.4-0.1c-0.4-0.5-0.7-0.9-1.1-1.4C16.4,9,14.9,7,12,7    c-2.8,0-5,2.2-5,5c0,1.4,0.9,2.6,2.3,2.9c0.5,0.1,0.8,0.5,0.8,1c0,0,0,0.1,0,0.2c0,1.6,1.3,2.9,3,2.9c0.6,0,1,0.4,1,1    c0,3,1.5,3,2,3c0.6,0,1,0.4,1,1S16.6,25,16,25z"/>
<path d="M32,25c-0.6,0-1-0.4-1-1s0.4-1,1-1c0.5,0,2,0,2-3c0-0.6,0.4-1,1-1c1.7,0,3-1.3,3-3c0,0,0,0,0-0.1c0-0.5,0.3-0.9,0.8-1    c1.3-0.3,2.3-1.5,2.3-2.9c0-2.8-2.2-5-5-5c-2.9,0-4.4,2-6.2,4.3c-0.4,0.5-0.7,0.9-1.1,1.4c-0.4,0.4-1,0.5-1.4,0.1    c-0.4-0.3-0.5-1-0.1-1.4c0.4-0.4,0.7-0.9,1-1.3c1.9-2.5,3.9-5,7.7-5c3.9,0,7,3.1,7,7c0,2-1.2,3.8-3,4.6c-0.3,2.2-1.9,3.9-4,4.3    C35.7,23.5,34.3,25,32,25z"/>
</g>
</g>
<g id="Layer_16"/>
<g id="Layer_17"/>
<g id="Layer_18"/>
<g id="Layer_19"/>
<g id="Layer_20"/>
<g id="Layer_21"/>
<g id="Layer_22"/>
<g id="Layer_23"/>
<g id="Layer_24"/>
<g id="Layer_25"/>
<g id="Layer_26"/>
<g id="Layer_27"/>
<g id="Layer_28"/>
<g id="Layer_29"/>
<g id="Layer_30"/>
<g id="Layer_31"/>
<g id="Layer_32"/>
<g id="Layer_33"/>
<g id="Layer_34"/>
<g id="Layer_35"/>
<g id="Layer_36"/>
<g id="Layer_37"/>
<g id="Layer_38"/>
<g id="Layer_39"/>
<g id="Layer_40"/>
<g id="Layer_41"/>
<g id="Layer_42"/>
</svg>