<?xml version="1.0" encoding="utf-8"?>
<!-- Uploaded to: SVG Repo, www.svgrepo.com, Generator: SVG Repo Mixer Tools -->
<svg width="800px" height="800px" viewBox="0 -2.5 1029 1029" fill="#000000" class="icon"  version="1.1" xmlns="http://www.w3.org/2000/svg"><path d="M767.908 264.108a7.994 7.994 0 0 1-7.996-7.998c0-13.228 10.762-23.99 23.99-23.99 4.42 0 7.996 3.578 7.996 7.998s-3.576 7.996-7.996 7.996-7.996 3.584-7.996 7.996a7.992 7.992 0 0 1-7.998 7.998z" fill="" /><path d="M783.902 304.092c-12.822 0-24.866-4.982-33.924-14.042-18.71-18.71-18.726-49.144-0.016-67.846 18.164-18.148 49.762-18.148 67.878-0.032 18.68 18.726 18.664 49.174-0.032 67.878-9.04 9.06-21.1 14.042-33.906 14.042z m0.032-79.968a31.922 31.922 0 0 0-22.678 9.394 31.77 31.77 0 0 0-9.34 22.592c0 8.552 3.326 16.588 9.372 22.632 12.056 12.066 33.142 12.082 45.214 0 12.464-12.472 12.48-32.784 0.016-45.27a31.716 31.716 0 0 0-22.584-9.348zM224.128 264.108a7.994 7.994 0 0 1-7.998-7.998c0-13.228 10.762-23.99 23.99-23.99 4.42 0 7.996 3.578 7.996 7.998s-3.576 7.996-7.996 7.996a7.914 7.914 0 0 0-7.996 7.996 7.99 7.99 0 0 1-7.996 7.998z" fill="" /><path d="M240.106 304.092c-12.814 0-24.866-4.982-33.908-14.042-18.71-18.704-18.726-49.144-0.032-67.846 18.172-18.148 49.76-18.148 67.878-0.032 18.688 18.726 18.672 49.174-0.032 67.878-9.04 9.06-21.092 14.042-33.906 14.042z m0.04-79.968a31.912 31.912 0 0 0-22.678 9.394c-12.456 12.464-12.44 32.752 0.04 45.224 12.056 12.074 33.142 12.074 45.2 0 12.472-12.472 12.488-32.784 0.024-45.27a31.738 31.738 0 0 0-22.586-9.348zM815.888 703.924a8 8 0 0 1-7.996-7.996c0-13.244 10.762-23.99 23.99-23.99a7.98 7.98 0 0 1 7.996 7.996 8 8 0 0 1-7.996 7.996 7.994 7.994 0 0 0-7.998 7.998 8 8 0 0 1-7.996 7.996z" fill="" /><path d="M831.882 743.906c-12.822 0-24.866-4.996-33.924-14.054-18.71-18.71-18.726-49.136-0.016-67.848 18.164-18.148 49.76-18.148 67.878-0.032 18.68 18.742 18.664 49.184-0.032 67.878-9.042 9.06-21.098 14.056-33.906 14.056z m0.032-79.964a31.912 31.912 0 0 0-22.678 9.386c-6.014 6.012-9.34 14.04-9.34 22.6a31.74 31.74 0 0 0 9.372 22.616c12.072 12.072 33.156 12.088 45.214 0 12.462-12.464 12.478-32.768 0.016-45.262a31.7 31.7 0 0 0-22.584-9.34z" fill="" /><path d="M511.992 967.812c-191.95 0-364.37-121.012-429.046-301.154a8.024 8.024 0 0 1 4.826-10.246c4.116-1.498 8.73 0.672 10.23 4.842C160.398 835.056 326.772 951.82 511.992 951.82c185.228 0 351.596-116.764 413.99-290.598 1.484-4.154 6.076-6.34 10.23-4.81a7.988 7.988 0 0 1 4.826 10.214c-64.674 180.16-237.086 301.186-429.046 301.186zM119.336 304.076c-1.304 0-2.624-0.32-3.842-0.992a7.984 7.984 0 0 1-3.156-10.854c47.378-86.222 122.838-155.88 212.466-196.144a7.968 7.968 0 0 1 10.574 4.014 7.996 7.996 0 0 1-4.014 10.574c-86.488 38.85-159.292 106.066-205.016 189.256a7.982 7.982 0 0 1-7.012 4.146zM233.132 448.148a7.996 7.996 0 0 1-7.756-9.98c22.194-86.854 81.778-158.074 163.486-195.386 3.974-1.866 8.754-0.07 10.59 3.952a7.986 7.986 0 0 1-3.952 10.59c-77.28 35.298-133.64 102.66-154.63 184.812a7.998 7.998 0 0 1-7.738 6.012zM791.384 448.046a7.992 7.992 0 0 1-7.732-6.022c-21.038-82.292-77.514-149.71-154.982-184.96a7.988 7.988 0 0 1-3.966-10.588c1.828-4.014 6.56-5.826 10.59-3.968 81.904 37.266 141.612 108.548 163.854 195.566a8 8 0 0 1-7.764 9.972z" fill="" /><path d="M512.008 807.88c-123.464 0-231.848-74.252-276.126-189.14a7.99 7.99 0 0 1 4.584-10.338 7.982 7.982 0 0 1 10.332 4.59c41.888 108.674 144.416 178.894 261.21 178.894 116.756 0 219.276-70.19 261.18-178.816a7.99 7.99 0 0 1 10.34-4.574 7.986 7.986 0 0 1 4.576 10.338c-44.31 114.826-152.686 189.046-276.096 189.046zM520.006 943.824c-35.276 0-63.974-28.708-63.974-63.974 0-35.282 28.7-63.972 63.974-63.972s63.98 28.692 63.98 63.972c0 35.268-28.706 63.974-63.98 63.974z m0-111.952c-26.458 0-47.982 21.522-47.982 47.978 0 26.458 21.522 47.98 47.982 47.98 26.464 0 47.988-21.522 47.988-47.98s-21.524-47.978-47.988-47.978zM176.15 703.924a8.002 8.002 0 0 1-7.998-7.996c0-13.244 10.76-23.99 23.99-23.99 4.42 0 7.998 3.56 7.998 7.996a8.002 8.002 0 0 1-7.998 7.996 7.998 7.998 0 0 0-7.996 7.998 8 8 0 0 1-7.996 7.996z" fill="" /><path d="M192.142 743.906c-12.822 0-24.864-4.996-33.922-14.054-18.71-18.71-18.718-49.136-0.016-67.848 18.172-18.148 49.768-18.148 67.878-0.032 18.688 18.742 18.672 49.184-0.032 67.878-9.044 9.06-21.092 14.056-33.908 14.056z m0.038-79.964a31.904 31.904 0 0 0-22.678 9.386c-6.02 6.012-9.34 14.04-9.34 22.6 0 8.542 3.328 16.586 9.364 22.616 12.066 12.072 33.15 12.088 45.216 0 12.472-12.464 12.488-32.768 0.024-45.262a31.714 31.714 0 0 0-22.586-9.34zM879.846 504c-6.418 0-12.448-2.5-16.976-7.028a23.892 23.892 0 0 1-7.012-16.962c0-6.412 2.498-12.44 7.028-16.968 9.058-9.058 24.85-9.066 33.924 0.008a23.84 23.84 0 0 1 7.028 16.96c0 6.404-2.498 12.432-7.028 16.962s-10.56 7.028-16.964 7.028z m0-31.994a7.934 7.934 0 0 0-5.652 2.35 7.924 7.924 0 0 0-2.344 5.654 7.94 7.94 0 0 0 2.344 5.654c3.03 3.03 8.292 3.044 11.292 0a7.954 7.954 0 0 0 2.36-5.654 8.004 8.004 0 0 0-2.344-5.654 7.97 7.97 0 0 0-5.656-2.35z" fill="" /><path d="M903.836 543.992a24 24 0 0 1-23.162-17.792 23.756 23.756 0 0 1 2.376-18.196 23.75 23.75 0 0 1 14.602-11.182c12.418-3.414 26.038 4.452 29.364 16.97 3.422 12.752-4.186 25.934-16.946 29.372-2.048 0.546-4.14 0.828-6.234 0.828z m0.032-31.996c-0.702 0-1.404 0.094-2.092 0.274a7.928 7.928 0 0 0-4.874 3.726 7.872 7.872 0 0 0-0.782 6.05c1.124 4.186 5.56 6.858 9.792 5.67a8.008 8.008 0 0 0 5.654-9.792 8 8 0 0 0-7.698-5.928z" fill="" /><path d="M855.888 543.992c-2.078 0-4.172-0.282-6.216-0.828a23.774 23.774 0 0 1-14.588-11.168 23.844 23.844 0 0 1-2.376-18.226c3.344-12.456 16.792-20.328 29.378-16.946 12.778 3.42 20.382 16.594 16.96 29.378a23.996 23.996 0 0 1-23.158 17.79z m0-31.996a8.01 8.01 0 0 0-7.732 5.928 7.92 7.92 0 0 0 0.782 6.076 7.936 7.936 0 0 0 4.874 3.716c4.232 1.094 8.668-1.5 9.792-5.646a8.006 8.006 0 0 0-7.716-10.074z" fill="" /><path d="M1015.664 655.944c-1.888 0-3.78-0.67-5.31-2.03-1.952-1.688-19.274-15.994-34.828-0.406a7.956 7.956 0 0 1-7.512 2.124 8.056 8.056 0 0 1-5.748-5.282c-0.922-2.716-9.902-26.52-35.674-17.914a8.054 8.054 0 0 1-6.246-0.516 7.912 7.912 0 0 1-3.968-4.872c-0.36-1.204-8.95-29.676-38.794-39.516a8.02 8.02 0 0 1-5.092-10.106c1.376-4.186 5.858-6.542 10.106-5.076 28.05 9.246 41.216 31.33 46.372 42.952 9.386-1.75 18.04-0.688 25.848 3.232 8.558 4.294 14.292 11.23 17.852 16.962 19.118-11.542 39.328-1.546 48.324 6.48a7.986 7.986 0 0 1 0.64 11.278 7.962 7.962 0 0 1-5.97 2.69z" fill="" /><path d="M1015.79 655.802a7.89 7.89 0 0 1-5.952-2.67c-8.042-8.98-18.04-29.208-6.496-48.324-5.732-3.56-12.636-9.278-16.93-17.836-3.922-7.824-5-16.508-3.218-25.894-11.556-5.202-33.594-18.43-42.856-46.48a8.02 8.02 0 0 1 5.09-10.106 7.988 7.988 0 0 1 10.106 5.092c9.84 29.876 38.234 38.576 39.438 38.936a8.08 8.08 0 0 1 4.84 3.984c1 1.92 1.188 4.17 0.5 6.23-2.702 8.074-2.56 15.166 0.406 21.086 5.17 10.308 17.354 14.554 17.478 14.618a7.966 7.966 0 0 1 5.28 5.732 8.054 8.054 0 0 1-2.124 7.514c-15.588 15.586-1.25 32.906 0.438 34.828a8.004 8.004 0 1 1-6 13.29zM690.66 567.98a8.016 8.016 0 0 1-7.606-5.528 7.962 7.962 0 0 1 5.092-10.058c2.466-0.844 23.332-8.606 17.586-29.91a8 8 0 0 1 1.922-7.582 7.88 7.88 0 0 1 7.45-2.328c0.046 0.024 7.59 1.476 15.414-0.734 9.636-2.702 15.448-9.606 17.76-21.108 0.826-4.084 4.67-6.802 8.808-6.366 0.328 0.046 31.642 3.5 55.492-17.82a7.998 7.998 0 1 1 10.652 11.932c-22.084 19.742-48.166 22.124-61.05 22.132-3.094 9.34-8.418 16.546-15.9 21.474-7.95 5.232-16.758 6.724-23.49 6.926 0.5 22.368-18.21 34.83-29.644 38.562a7.678 7.678 0 0 1-2.486 0.408z" fill="" /><path d="M781.466 594.344a7.956 7.956 0 0 1-5.998-2.716c-5.686-6.436-11.916-9.902-18.524-10.278-11.512-0.544-21.13 7.686-21.224 7.764a8.04 8.04 0 0 1-7.608 1.702 8.03 8.03 0 0 1-5.452-5.576c-5.918-21.974-29.332-17.414-30.346-17.21-4.31 0.812-8.56-1.888-9.45-6.214a8.006 8.006 0 0 1 6.216-9.45c11.76-2.438 34.266-0.938 45.058 18.71 5.902-3.172 14.244-6.28 23.74-5.686 8.856 0.516 17.008 4.014 24.334 10.4 11.042-7.528 36.14-21.24 65.596-14.992a8.014 8.014 0 0 1 6.186 9.48c-0.922 4.326-5.186 7.106-9.48 6.168-31.284-6.558-57.554 15.728-57.836 15.948a7.946 7.946 0 0 1-5.212 1.95z" fill="" /><path d="M936.62 486.164a7.992 7.992 0 0 1-7.808-6.35c-6.216-29.464 7.48-54.492 15.026-65.528-6.404-7.316-9.886-15.47-10.418-24.318-0.546-9.488 2.53-17.844 5.702-23.754-19.632-10.808-21.132-33.292-18.696-45.068a8.018 8.018 0 0 1 9.464-6.208 7.988 7.988 0 0 1 6.2 9.426c-0.484 2.538-4.17 24.606 17.196 30.376a8.02 8.02 0 0 1 5.594 5.452 8.006 8.006 0 0 1-1.718 7.606c-1.876 2.14-17.96 21.688 2.514 39.758a8.004 8.004 0 0 1 0.75 11.22c-0.218 0.266-22.522 26.668-15.962 57.742a8.004 8.004 0 0 1-7.844 9.646z" fill="" /><path d="M838.536 455.91a7.986 7.986 0 0 1-5.342-2.038 8.016 8.016 0 0 1-0.624-11.292c21.46-23.974 19.804-53.54 19.79-53.836a8.028 8.028 0 0 1 6.404-8.388c8.34-1.67 14.4-5.31 18.024-10.808 6.31-9.582 3.874-22.232 3.842-22.358a7.97 7.97 0 0 1 2.328-7.466 8.068 8.068 0 0 1 7.574-1.912c21.946 5.896 29.598-16.612 29.91-17.572a7.996 7.996 0 1 1 15.196 4.982c-3.748 11.416-16.132 30.05-38.576 29.628-0.188 6.732-1.688 15.548-6.92 23.498-4.982 7.576-12.306 12.948-21.834 16.032-0.562 11.816-4.216 36.976-23.818 58.866a7.976 7.976 0 0 1-5.954 2.664z" fill="" /><path d="M144.178 504c-6.412 0-12.442-2.5-16.97-7.028a23.866 23.866 0 0 1-7.02-16.962c0-6.404 2.498-12.432 7.028-16.96 9.058-9.074 24.858-9.074 33.932 0a23.838 23.838 0 0 1 7.02 16.96c0 6.404-2.5 12.432-7.028 16.962A23.824 23.824 0 0 1 144.178 504z m0-31.994c-2.132 0-4.14 0.836-5.646 2.35a7.946 7.946 0 0 0-2.352 5.654c0 2.132 0.836 4.138 2.344 5.654 3.03 3.038 8.286 3.022 11.3 0a7.952 7.952 0 0 0 2.35-5.654 7.9 7.9 0 0 0-2.342-5.646 7.924 7.924 0 0 0-5.654-2.358z" fill="" /><path d="M120.188 543.992c-2.102 0-4.194-0.282-6.232-0.828-12.768-3.438-20.374-16.62-16.954-29.378 3.334-12.502 16.898-20.328 29.378-16.962a23.8 23.8 0 0 1 14.594 11.182 23.75 23.75 0 0 1 2.36 18.21 23.984 23.984 0 0 1-23.146 17.776z m-0.03-31.996a8.004 8.004 0 0 0-7.708 5.92 8.014 8.014 0 0 0 5.662 9.8 7.86 7.86 0 0 0 2.078 0.282 7.994 7.994 0 0 0 7.708-5.936 7.926 7.926 0 0 0-0.774-6.066 7.938 7.938 0 0 0-4.874-3.726 8.36 8.36 0 0 0-2.092-0.274z" fill="" /><path d="M168.128 543.992a24.01 24.01 0 0 1-23.162-17.798c-3.42-12.776 4.194-25.95 16.962-29.37 12.596-3.406 26.036 4.49 29.378 16.962a23.836 23.836 0 0 1-2.366 18.21 23.8 23.8 0 0 1-14.604 11.168 23.936 23.936 0 0 1-6.208 0.828z m0.008-31.996a8.008 8.008 0 0 0-7.724 10.066c1.124 4.162 5.576 6.78 9.792 5.654a7.966 7.966 0 0 0 4.88-3.716 7.932 7.932 0 0 0 0.774-6.06 8 8 0 0 0-7.722-5.944z" fill="" /><path d="M8.376 655.912a7.96 7.96 0 0 1-5.99-2.686 7.976 7.976 0 0 1 0.648-11.246c8.988-8.028 29.222-18.054 48.324-6.48 3.562-5.732 9.292-12.668 17.844-16.962 7.816-3.92 16.454-4.982 25.848-3.232 5.162-11.622 18.32-33.706 46.372-42.952 4.216-1.466 8.722 0.89 10.106 5.076a8.008 8.008 0 0 1-5.092 10.106c-30.104 9.918-38.694 39.204-38.78 39.484a7.958 7.958 0 0 1-3.96 4.902 7.958 7.958 0 0 1-6.27 0.516c-8.036-2.702-15.126-2.56-21.054 0.39-10.316 5.186-14.58 17.398-14.62 17.524a8.066 8.066 0 0 1-5.748 5.282 7.95 7.95 0 0 1-7.504-2.124c-15.586-15.588-32.908-1.25-34.844 0.422a8.006 8.006 0 0 1-5.28 1.98z" fill="" /><path d="M8.22 655.818a8.054 8.054 0 0 1-5.326-2.03 8.008 8.008 0 0 1-0.656-11.278c1.71-1.966 16.002-19.274 0.438-34.828a8.028 8.028 0 0 1-2.124-7.514 7.956 7.956 0 0 1 5.272-5.732c2.71-0.936 26.52-9.87 17.882-35.704a7.98 7.98 0 0 1 0.508-6.23 8.068 8.068 0 0 1 4.834-3.984c1.202-0.36 29.596-9.058 39.444-38.936a7.976 7.976 0 0 1 10.098-5.092 8.012 8.012 0 0 1 5.092 10.106c-9.254 28.05-31.292 41.28-42.858 46.48 1.78 9.386 0.704 18.07-3.218 25.894-4.288 8.558-11.198 14.276-16.93 17.836 11.55 19.118 1.546 39.344-6.49 48.324a7.956 7.956 0 0 1-5.966 2.688zM333.364 567.98c-0.82 0-1.656-0.124-2.484-0.406-11.432-3.732-30.144-16.196-29.644-38.562-6.732-0.202-15.548-1.694-23.498-6.926-7.474-4.928-12.806-12.134-15.9-21.474-12.51 0.078-38.952-2.39-61.044-22.132a7.998 7.998 0 0 1 10.652-11.932c23.842 21.304 55.18 17.86 55.492 17.82a7.97 7.97 0 0 1 8.808 6.366c1.672 8.324 5.302 14.384 10.792 18 9.606 6.318 22.232 3.888 22.374 3.842 2.702-0.61 5.538 0.304 7.458 2.328 1.914 2.022 2.632 4.894 1.914 7.582-5.918 21.944 16.602 29.566 17.564 29.894a7.974 7.974 0 0 1 5.114 10.074 8.008 8.008 0 0 1-7.598 5.526z" fill="" /><path d="M242.558 594.328a8.052 8.052 0 0 1-5.216-1.92c-0.256-0.218-26.676-22.506-57.842-15.962-4.28 0.938-8.55-1.842-9.472-6.168a8 8 0 0 1 6.178-9.48c29.432-6.264 54.554 7.464 65.606 14.992 7.316-6.386 15.476-9.884 24.326-10.4 9.526-0.546 17.844 2.514 23.748 5.686 10.792-19.648 33.284-21.148 45.052-18.71a8.004 8.004 0 0 1 6.216 9.45 7.994 7.994 0 0 1-9.418 6.23c-2.538-0.546-24.606-4.186-30.376 17.196a7.992 7.992 0 0 1-5.452 5.576 8.04 8.04 0 0 1-7.606-1.702c-2.14-1.89-21.688-17.946-39.742 2.514a8.02 8.02 0 0 1-6.002 2.698z" fill="" /><path d="M87.398 486.164a7.992 7.992 0 0 1-7.832-9.644c6.552-31.074-15.744-57.476-15.97-57.742a8.012 8.012 0 0 1 0.758-11.22c20.476-18.07 4.38-37.618 2.482-39.79a8.018 8.018 0 0 1-1.654-7.598 8 8 0 0 1 5.552-5.428c21.992-5.936 17.408-29.354 17.196-30.346a8.004 8.004 0 0 1 6.208-9.458c4.28-0.868 8.55 1.874 9.456 6.208 2.438 11.778 0.946 34.26-18.686 45.068 3.164 5.91 6.248 14.266 5.692 23.754-0.524 8.848-4.014 17-10.41 24.318 7.544 11.036 21.242 36.064 15.024 65.528a8.004 8.004 0 0 1-7.816 6.35z" fill="" /><path d="M185.49 455.91a7.968 7.968 0 0 1-5.958-2.662c-19.594-21.89-23.256-47.05-23.818-58.866-9.52-3.084-16.844-8.458-21.834-16.032-5.232-7.95-6.724-16.766-6.92-23.498-22.084 0.516-34.82-18.204-38.576-29.628a7.994 7.994 0 0 1 5.106-10.09c4.194-1.398 8.684 0.898 10.082 5.076 0.836 2.436 8.568 23.35 29.926 17.602 2.702-0.68 5.56 0.008 7.574 1.912a7.99 7.99 0 0 1 2.328 7.466c-0.008 0.04-1.476 7.55 0.726 15.408 2.702 9.636 9.62 15.446 21.13 17.758a8.034 8.034 0 0 1 6.412 8.388c-0.024 0.296-1.672 29.862 19.78 53.836a8 8 0 0 1-5.958 13.33z" fill="" /><path d="M539.788 919.832a8.186 8.186 0 0 1-3.876-0.998l-15.906-8.778-15.91 8.778a8.004 8.004 0 0 1-11.76-8.294l3.13-19.146-13.174-13.51a8 8 0 0 1 4.514-13.498l17.882-2.732 8.074-17.196c2.642-5.624 11.84-5.624 14.48 0l8.074 17.196 17.884 2.732a8.024 8.024 0 0 1 6.372 5.374 8 8 0 0 1-1.858 8.124l-13.168 13.51 3.124 19.146a7.996 7.996 0 0 1-7.882 9.292z m-19.782-26.926c1.328 0 2.662 0.344 3.866 1l5.358 2.968-1.124-6.888a8.034 8.034 0 0 1 2.172-6.874l5.136-5.262-6.73-1.032a7.992 7.992 0 0 1-6.03-4.514l-2.646-5.638-2.648 5.638a7.988 7.988 0 0 1-6.028 4.514l-6.732 1.032 5.138 5.262a8 8 0 0 1 2.17 6.874l-1.124 6.888 5.358-2.968c1.2-0.656 2.536-1 3.864-1z" fill="" /><path d="M686.802 871.854c-13.51 0-23.88-5.326-28.472-14.62-4.076-8.246-2.81-18.554 3.436-28.27 5.544-8.606 14.588-16.29 25.458-21.646 13.182-6.514 31.58-10.902 45.746-10.902 16.68 0 23.208 6.124 25.738 11.246 9.418 19.1-22.6 46.854-43.168 57.006-9.51 4.704-19.46 7.186-28.738 7.186z m46.168-59.444c-11.746 0-27.644 3.81-38.672 9.246-8.2 4.044-15.148 9.856-19.086 15.96-3.138 4.888-4.06 9.464-2.544 12.542 3.436 6.98 20.99 7.48 35.782 0.172 20.554-10.152 37.594-30.832 35.908-35.612-0.314-0.466-3.22-2.308-11.388-2.308z" fill="" /><path d="M694.174 847.55a8.012 8.012 0 0 1-7.918-6.918l-3.42-25.052a7.984 7.984 0 0 1 6.824-9.012c4.31-0.594 8.404 2.466 9.012 6.842l3.438 25.05a8.018 8.018 0 0 1-7.936 9.09z" fill="" /><path d="M711.994 865.512a7.98 7.98 0 0 1-5.684-2.374l-17.804-17.962a7.99 7.99 0 0 1 0.046-11.306 7.992 7.992 0 0 1 11.306 0.046l17.804 17.96a7.996 7.996 0 0 1-0.046 11.308 7.97 7.97 0 0 1-5.622 2.328zM722.834 833.37a8.012 8.012 0 0 1-7.918-6.918l-2.718-19.868a8 8 0 0 1 6.842-9.012c4.358-0.562 8.402 2.466 9.012 6.842l2.716 19.866a8.014 8.014 0 0 1-7.934 9.09z" fill="" /><path d="M736.984 847.614a7.972 7.972 0 0 1-5.686-2.36l-14.132-14.258a7.992 7.992 0 0 1 0.046-11.308 7.98 7.98 0 0 1 11.306 0.046l14.134 14.26a7.992 7.992 0 0 1-5.668 13.62z" fill="" /><path d="M353.216 871.854c-9.292 0-19.226-2.482-28.73-7.186-20.578-10.152-52.604-37.906-43.178-57.006 2.53-5.124 9.05-11.246 25.732-11.246 14.174 0 32.564 4.388 45.77 10.902 10.854 5.358 19.89 13.042 25.434 21.646 6.256 9.714 7.514 20.024 3.452 28.27-4.6 9.294-14.97 14.62-28.48 14.62z m-46.176-59.444c-8.162 0-11.066 1.842-11.402 2.342-1.67 4.748 15.37 25.428 35.93 35.58 7.208 3.56 14.9 5.528 21.648 5.528 7.082 0 12.37-2.124 14.134-5.714 1.514-3.062 0.584-7.638-2.554-12.528-3.936-6.106-10.886-11.916-19.062-15.946-11.042-5.452-26.942-9.262-38.694-9.262z" fill="" /><path d="M345.834 847.55a8.006 8.006 0 0 1-7.926-9.09l3.428-25.05c0.602-4.376 4.576-7.404 9.012-6.842a7.996 7.996 0 0 1 6.834 9.012l-3.428 25.052a8.006 8.006 0 0 1-7.92 6.918z" fill="" /><path d="M328.022 865.512a7.988 7.988 0 0 1-5.63-2.326 7.996 7.996 0 0 1-0.046-11.308l17.806-17.96a7.996 7.996 0 1 1 11.354 11.26l-17.804 17.962a7.986 7.986 0 0 1-5.68 2.372zM317.176 833.37a8.016 8.016 0 0 1-7.934-9.09l2.718-19.866c0.61-4.376 4.63-7.374 9.012-6.842a7.998 7.998 0 0 1 6.84 9.012l-2.716 19.868a8.01 8.01 0 0 1-7.92 6.918z" fill="" /><path d="M303.034 847.614a7.99 7.99 0 0 1-5.676-13.618l14.134-14.26a7.98 7.98 0 0 1 11.306-0.046 7.992 7.992 0 0 1 0.046 11.308l-14.134 14.258a7.954 7.954 0 0 1-5.676 2.358z" fill="" /><path d="M400.04 376.054a7.994 7.994 0 0 1-7.998-7.998c0-22.92 5.788-34.578 11.918-46.926 8.942-18 20.07-40.404 20.07-113.006 0-4.42 3.578-7.998 7.998-7.998s7.996 3.578 7.996 7.998c0 76.358-12.05 100.622-21.732 120.122-5.952 11.986-10.254 20.638-10.254 39.81a7.996 7.996 0 0 1-7.998 7.998zM623.956 376.054a7.994 7.994 0 0 1-7.998-7.998c0-19.172-4.31-27.824-10.262-39.802-9.682-19.5-21.724-43.764-21.724-120.122 0-4.42 3.576-7.998 7.996-7.998s7.996 3.578 7.996 7.998c0 72.602 11.122 95.006 20.07 113.006 6.124 12.34 11.918 23.998 11.918 46.918a7.994 7.994 0 0 1-7.996 7.998z" fill="" /><path d="M623.956 376.054H400.04c-4.42 0-7.998-3.578-7.998-7.998s3.578-7.996 7.998-7.996h223.916c4.418 0 7.996 3.576 7.996 7.996s-3.578 7.998-7.996 7.998zM511.992 152.148c-18.532 0-31.986-13.456-31.986-31.988s13.456-31.986 32.002-31.986c18.534 0 31.98 13.456 31.98 31.986s-13.462 31.988-31.996 31.988z m0.016-47.98c-7.388 0-16.008 4.186-16.008 15.994s8.614 15.994 15.994 15.994c7.38 0 15.994-4.186 15.994-15.994s-8.608-15.994-15.98-15.994z" fill="" /><path d="M616.192 195.84c-39.374 0-94.85-46.394-97.31-48.47a8.006 8.006 0 0 1-0.96-11.27 7.992 7.992 0 0 1 11.278-0.96c16.148 13.62 63.942 48.214 90.882 44.458 5.888-0.804 10.09-3.334 13.262-7.966 9.058-13.246 21.788-63.544 9.418-86.98-4.484-8.512-11.574-12.47-22.32-12.47-61.738 0.016-85.622 33.736-85.854 34.08a7.992 7.992 0 0 1-11.128 2.062 8 8 0 0 1-2.06-11.12c1.146-1.67 28.978-41 99.042-41.014 16.604 0 29.222 7.256 36.468 21 16.37 31.018 0.844 87.088-10.372 103.464-5.714 8.396-13.898 13.378-24.3 14.798-1.97 0.262-3.984 0.388-6.046 0.388zM407.826 195.84c-2.07 0-4.084-0.124-6.052-0.39-10.402-1.42-18.586-6.402-24.318-14.806-11.19-16.384-26.708-72.47-10.338-103.472 7.246-13.728 19.858-20.984 36.46-20.984h0.008c70.064 0.016 97.874 39.344 99.02 41.014a7.996 7.996 0 0 1-2.062 11.12 7.98 7.98 0 0 1-11.098-2.03c-0.976-1.39-24.676-34.094-85.862-34.11h-0.008c-10.738 0-17.828 3.958-22.318 12.462-12.372 23.42 0.358 73.734 9.41 86.98 3.164 4.638 7.372 7.168 13.26 7.974 26.964 3.74 74.742-30.846 90.898-44.458a7.992 7.992 0 0 1 11.27 0.96 8.008 8.008 0 0 1-0.96 11.27c-2.46 2.076-57.944 48.47-97.31 48.47z" fill="" /><path d="M488.002 128.158h-39.984c-4.42 0-7.996-3.578-7.996-7.998s3.576-7.998 7.996-7.998h39.984c4.42 0 7.996 3.578 7.996 7.998s-3.576 7.998-7.996 7.998zM575.974 128.158h-39.984a8 8 0 1 1 0-15.996h39.984c4.42 0 7.996 3.578 7.996 7.998s-3.576 7.998-7.996 7.998zM511.976 424.034c-17.642 0-31.986-14.346-31.986-31.986 0-4.42 3.578-7.996 7.998-7.996s7.996 3.576 7.996 7.996c0 8.816 7.176 15.994 15.994 15.994s15.994-7.178 15.994-15.994a7.998 7.998 0 0 1 8.004-7.996 7.992 7.992 0 0 1 7.998 7.996c-0.002 17.64-14.354 31.986-31.998 31.986z" fill="" /><path d="M904.68 304.076c-2.826 0-5.56-1.5-7.014-4.146-45.714-83.192-118.528-150.406-205.006-189.256a7.996 7.996 0 1 1 6.558-14.588c89.62 40.264 165.088 109.922 212.458 196.144a7.978 7.978 0 0 1-3.156 10.854 7.902 7.902 0 0 1-3.84 0.992z" fill="" /></svg>