<?xml version="1.0" encoding="iso-8859-1"?>
<!-- Uploaded to: SVG Repo, www.svgrepo.com, Generator: SVG Repo Mixer Tools -->
<!DOCTYPE svg PUBLIC "-//W3C//DTD SVG 1.1//EN" "http://www.w3.org/Graphics/SVG/1.1/DTD/svg11.dtd">
<svg fill="#000000" version="1.1" id="Capa_1" xmlns="http://www.w3.org/2000/svg" xmlns:xlink="http://www.w3.org/1999/xlink" 
	 width="800px" height="800px" viewBox="0 0 44.783 44.783"
	 xml:space="preserve">
<g>
	<g>
		<path d="M40.726,8.85c0,0-6.27-6.235-8.394-8.385c-0.442-0.447-1.11-0.458-1.461-0.459c-5.469-0.013-18.53,0.001-18.53,0.001
			c-1.67,0-3.033,1.381-3.033,3.051v18.256c-3.367,1.676-5.686,5.151-5.686,9.162c0,7.174,9.023,13.767,9.407,14.043
			c0.245,0.177,0.532,0.265,0.82,0.265c0.271,0,0.543-0.078,0.78-0.236c0.14-0.094,1.424-0.967,3.003-2.407h20.5
			c1.67,0,3.014-1.372,3.014-3.042V9.899h0.016C41.16,9.498,41.011,9.132,40.726,8.85z M32.761,5.1l3.283,3.284l-3.283-0.028V5.1z
			 M13.867,41.635c-2.639-2.119-7.444-6.866-7.444-11.159c0-4.095,3.331-7.427,7.426-7.427c4.095,0,7.426,3.332,7.426,7.427
			C21.275,35.465,15.931,40.049,13.867,41.635z M38.134,39.172l-17.642-0.045c1.927-2.381,3.583-5.381,3.583-8.651
			c0-5.64-4.587-10.227-10.226-10.227c-0.522,0-1.035,0.04-1.536,0.115l0.028-17.345h17.457v5.335c0,1.67,1.368,3.051,3.039,3.051
			h5.353L38.134,39.172z"/>
		<path d="M18.08,30.543c0-2.273-1.85-4.123-4.125-4.123c-2.274,0-4.124,1.85-4.124,4.123c0,2.275,1.85,4.125,4.124,4.125
			C16.23,34.668,18.08,32.817,18.08,30.543z M13.955,33.625c-1.699,0-3.081-1.383-3.081-3.082s1.382-3.082,3.081-3.082
			c1.7,0,3.082,1.383,3.082,3.082C17.036,32.242,15.655,33.625,13.955,33.625z"/>
	</g>
</g>
</svg>