<?xml version="1.0" encoding="iso-8859-1"?>
<!-- Uploaded to: SVG Repo, www.svgrepo.com, Generator: SVG Repo Mixer Tools -->
<!DOCTYPE svg PUBLIC "-//W3C//DTD SVG 1.1//EN" "http://www.w3.org/Graphics/SVG/1.1/DTD/svg11.dtd">
<svg fill="#000000" version="1.1" id="Capa_1" xmlns="http://www.w3.org/2000/svg" xmlns:xlink="http://www.w3.org/1999/xlink" 
	 width="800px" height="800px" viewBox="0 0 318.601 318.6"
	 xml:space="preserve">
<g>
	<path d="M45.296,318.6h228.007V0H45.296V318.6z M217.358,261.041H101.255v-12.071h116.103V261.041z M232.883,235.849H85.73v-12.076
		h147.152V235.849z M101.255,212.44v-12.07h116.103v12.07H101.255z M57.38,12.15h203.853v121.5L57.38,182.25V12.15z M95.444,105.609
		c-2.413-1.258-5.297-1.475-8.644-0.654l-14.518,3.552l8.279,33.806l7.014-1.717l-2.975-12.155l7.043-1.725
		c3.67-0.901,6.296-2.418,7.873-4.551c1.572-2.139,1.872-5.2,0.896-9.191C99.518,109.318,97.864,106.866,95.444,105.609z
		 M93,118.924c-0.699,1.03-1.854,1.745-3.462,2.138l-6.368,1.562l-2.434-9.951l6.365-1.566c1.608-0.396,2.958-0.329,4.034,0.203
		c1.081,0.53,1.83,1.674,2.262,3.436C93.83,116.506,93.696,117.898,93,118.924z M109.653,99.354l-3.792,36.764l7.388-1.809
		l0.588-7.512l12.453-3.051l3.929,6.404l7.665-1.875L117.646,97.4L109.653,99.354z M114.333,120.5l1.128-14.375l7.528,12.258
		L114.333,120.5z M167.903,117.98c-0.253-0.52-0.569-1.55-0.949-3.096l-0.563-2.268c-0.575-2.37-1.34-4.05-2.268-5.049
		c-0.929-0.994-2.252-1.614-3.964-1.856c1.706-1.097,2.774-2.523,3.207-4.277c0.432-1.75,0.448-3.43,0.055-5.034
		c-0.324-1.329-0.822-2.462-1.497-3.401c-0.67-0.941-1.469-1.745-2.397-2.431c-1.117-0.825-2.37-1.355-3.741-1.587
		s-3.225-0.087-5.547,0.438l-16.166,3.957l8.276,33.803l6.903-1.682l-3.246-13.258l6.9-1.69c1.967-0.483,3.396-0.448,4.287,0.092
		c0.891,0.543,1.622,1.888,2.178,4.037l0.815,3.132c0.258,0.989,0.593,1.938,1.01,2.84c0.205,0.438,0.506,1.005,0.901,1.703
		l7.789-1.911l-0.2-0.849C168.89,119.346,168.305,118.805,167.903,117.98z M155.498,103.394c-0.67,0.551-1.753,1.015-3.262,1.381
		l-7.602,1.864l-2.226-9.083l7.797-1.912c1.453-0.355,2.592-0.422,3.412-0.205c1.463,0.39,2.447,1.605,2.95,3.657
		C157.032,100.997,156.677,102.426,155.498,103.394z M193.854,85.077l-10.114,2.479l6.818,27.822l-7.108,1.738L176.626,89.3
		l-10.156,2.484l-1.467-5.983l27.391-6.708L193.854,85.077z M223.808,71.4l-6.128,23.899l3.096,12.674l-7.066,1.727l-3.101-12.675
		l-16.875-18.262l8.332-2.041l10.626,13.004l3.105-16.369L223.808,71.4z M243.098,95.494l1.619,6.631l-6.855,1.68l-1.624-6.632
		L243.098,95.494z M237.318,94.004l-5.765-15.298l-2.099-8.572l7.178-1.754l2.104,8.569l2.004,16.216L237.318,94.004z
		 M187.658,40.706H72.278v-8.517h115.38V40.706z"/>
</g>
</svg>