<?xml version="1.0" encoding="utf-8"?>

<!-- Uploaded to: SVG Repo, www.svgrepo.com, Generator: SVG Repo Mixer Tools -->
<svg version="1.1" id="Icons" xmlns="http://www.w3.org/2000/svg" xmlns:xlink="http://www.w3.org/1999/xlink" 
	 viewBox="0 0 32 32" xml:space="preserve">
<style type="text/css">
	.st0{fill:none;stroke:#000000;stroke-width:2;stroke-linecap:round;stroke-linejoin:round;stroke-miterlimit:10;}
</style>
<polyline class="st0" points="26,8 26,10 6,10 6,8 "/>
<path class="st0" d="M6,8c0-2.8,4.5-5,10-5s10,2.2,10,5"/>
<rect x="6" y="10" class="st0" width="20" height="8"/>
<line class="st0" x1="16" y1="10" x2="16" y2="18"/>
<path class="st0" d="M28,26H4v-6c0-1.1,0.9-2,2-2h20c1.1,0,2,0.9,2,2V26z"/>
<line class="st0" x1="7" y1="22" x2="8" y2="22"/>
<line class="st0" x1="24" y1="22" x2="25" y2="22"/>
<path class="st0" d="M22,26H10l1.6-6.3c0.2-1,1-1.7,1.9-1.7h4.9c0.9,0,1.7,0.7,1.9,1.7L22,26z"/>
<path class="st0" d="M8,30H7c-1.1,0-2-0.9-2-2v-2h5v2C10,29.1,9.1,30,8,30z"/>
<path class="st0" d="M25,30h-1c-1.1,0-2-0.9-2-2v-2h5v2C27,29.1,26.1,30,25,30z"/>
<line class="st0" x1="13" y1="7" x2="19" y2="7"/>
<path d="M23,6.8c0-0.1,0-0.1-0.1-0.2c0-0.1-0.1-0.1-0.1-0.2c0,0-0.1-0.1-0.1-0.1c-0.4-0.4-1.1-0.4-1.4,0c0,0-0.1,0.1-0.1,0.1
	c0,0.1-0.1,0.1-0.1,0.2c0,0.1,0,0.1-0.1,0.2c0,0.1,0,0.1,0,0.2c0,0.3,0.1,0.5,0.3,0.7c0.1,0.1,0.2,0.2,0.3,0.2C21.7,8,21.9,8,22,8
	c0.1,0,0.3,0,0.4-0.1s0.2-0.1,0.3-0.2c0.1-0.1,0.2-0.2,0.2-0.3C23,7.3,23,7.1,23,7C23,6.9,23,6.9,23,6.8z"/>
<path d="M11,6.8c0-0.1,0-0.1-0.1-0.2c0-0.1-0.1-0.1-0.1-0.2c0,0-0.1-0.1-0.1-0.1c-0.4-0.4-1.1-0.4-1.4,0c0,0-0.1,0.1-0.1,0.1
	c0,0.1-0.1,0.1-0.1,0.2C9,6.7,9,6.7,9,6.8C9,6.9,9,6.9,9,7c0,0.3,0.1,0.5,0.3,0.7c0.1,0.1,0.2,0.2,0.3,0.2C9.7,8,9.9,8,10,8
	c0.1,0,0.3,0,0.4-0.1s0.2-0.1,0.3-0.2c0.1-0.1,0.2-0.2,0.2-0.3C11,7.3,11,7.1,11,7C11,6.9,11,6.9,11,6.8z"/>
<path class="st0" d="M5,10L5,10c-1.1,0-2,0.9-2,2v3"/>
<path class="st0" d="M27,10L27,10c1.1,0,2,0.9,2,2v3"/>
</svg>