<?xml version="1.0" encoding="iso-8859-1"?>
<!-- Uploaded to: SVG Repo, www.svgrepo.com, Generator: SVG Repo Mixer Tools -->
<svg height="800px" width="800px" version="1.1" id="Capa_1" xmlns="http://www.w3.org/2000/svg" xmlns:xlink="http://www.w3.org/1999/xlink" 
	 viewBox="0 0 29.716 29.716" xml:space="preserve">
<g>
	<g>
		<path style="fill:#010002;" d="M27.905,16.989c0,0-0.004-0.028-0.012-0.037l-0.008-0.023l-0.008,0.007
			C27.069,16.13,12.758,1.819,11.803,0.863c-0.168-0.167-0.385-0.242-0.631-0.242c-1.492,0-4.044,2.728-2.95,3.823
			c1.274,1.274,16.114,16.115,16.114,16.115s4.998,2.101,5.342,1.754C30.024,21.967,27.905,16.989,27.905,16.989z M24.336,19.342
			L8.83,3.835C8.807,3.813,8.806,3.668,8.902,3.433c0.112-0.271,0.301-0.544,0.522-0.8l13.982,13.983
			c0.063,0.063,0.146,0.095,0.229,0.095c0.082,0,0.164-0.032,0.228-0.095c0.125-0.126,0.125-0.331,0-0.456L9.879,2.176
			c0.465-0.407,0.973-0.694,1.292-0.694c0.032,0,0.045,0.003,0.045,0.003c0.845,0.852,12.65,12.658,15.483,15.491L24.336,19.342z"/>
		<path style="fill:#010002;" d="M5.771,5.838c-0.226-0.227-0.593-0.227-0.82,0L0.17,10.619c-0.227,0.226-0.227,0.594,0,0.821
			l17.486,17.485c0.226,0.226,0.594,0.226,0.82,0l4.781-4.781c0.227-0.226,0.227-0.593,0-0.818L5.771,5.838z M18.066,27.695
			l-1-1.001l1.49-1.49l-0.346-0.347l-1.491,1.491l-1.035-1.035l1.491-1.49l-0.347-0.348l-1.491,1.492L14.4,24.03l1.492-1.492
			l-0.347-0.346l-1.492,1.491l-0.871-0.871l2.983-2.982l-0.347-0.346l-2.983,2.983l-0.812-0.813l1.491-1.491l-0.347-0.347
			l-1.491,1.491l-1.035-1.035l1.491-1.491l-0.346-0.347l-1.492,1.492L9.36,18.99l1.491-1.491l-0.347-0.347l-1.491,1.492
			l-0.952-0.953l2.982-2.983l-0.346-0.345l-2.982,2.981l-0.937-0.936l1.491-1.491L7.923,14.57l-1.491,1.491l-1.035-1.036l1.491-1.49
			l-0.347-0.348L5.05,14.678l-0.937-0.936l1.492-1.491l-0.347-0.347l-1.491,1.491l-0.953-0.953l2.982-2.981L5.449,9.115
			l-2.981,2.982L1.4,11.028l3.961-3.961l16.667,16.667L18.066,27.695z"/>
	</g>
</g>
</svg>