<?xml version="1.0" encoding="iso-8859-1"?>
<!-- Uploaded to: SVG Repo, www.svgrepo.com, Generator: SVG Repo Mixer Tools -->
<svg fill="#000000" height="800px" width="800px" version="1.1" id="Layer_1" xmlns="http://www.w3.org/2000/svg" xmlns:xlink="http://www.w3.org/1999/xlink" 
	 viewBox="0 0 511.998 511.998" xml:space="preserve">
<path d="M172.456,437.924h69.712c0.69,0,1.356-0.11,2-0.281c88.768,0,172.627,0,259.879,0.28c0.028,0,0.058,0,0.087,0
	c0.242,0.016,0.432-0.008,1.885-0.227c2.062-0.508,3.843-1.835,4.935-3.717c0.005-0.008,0.01-0.018,0.049-0.086
	c0.129-0.232,0.246-0.471,0.519-1.134c0.006-0.018,0.013-0.035,0.019-0.051c0.072-0.204,0.136-0.41,0.192-0.616
	c0.003-0.013,0.006-0.024,0.136-0.607c0.513-2.784-0.513-5.672-2.752-7.503c-39.776-32.655-67.845-82.977-83.427-149.568
	c-0.989-4.226-5.215-6.852-9.444-5.862c-4.226,0.989-6.851,5.217-5.862,9.444c14.333,61.253,38.973,109.631,73.367,144.149
	c-79.869-0.219-157.408-0.219-239.087-0.219c-7.482-6.241-14.342-13.009-20.619-20.157c-0.279-0.319-0.557-0.634-0.836-0.946
	c-30.79-35.518-47.524-79.995-56.451-114.016c-7.576-28.875-10.732-54.41-12.035-69.508c-0.166-2.103-0.315-4.213-0.45-6.327
	c82.109,0.318,165.464,0.328,246.361,0.329c0.349,10.39,1.388,20.744,3.103,30.88c0.649,3.836,3.975,6.549,7.74,6.549
	c0.435,0,0.876-0.037,1.32-0.111c4.28-0.724,7.162-4.78,6.438-9.06c-2-11.828-3.015-23.979-3.015-36.118
	c0-4.34-3.519-7.859-7.859-7.859c-86.026,0-174.981,0-262.36-0.362c-0.01,0-0.022,0-0.034,0h-13.098v-42.448V90.313V81.93
	c0-4.34-3.519-7.859-7.859-7.859s-7.859,3.519-7.859,7.859v2.935l-78.241,29.318c-3.068,1.15-5.101,4.083-5.101,7.359
	s2.033,6.21,5.101,7.359l78.241,29.318v37h-13.097c-4.283,0-7.777,3.43-7.858,7.711c-0.016,0.804-1.929,81.168-38.615,152.056
	c-1.994,3.855-0.487,8.598,3.368,10.592c3.857,1.996,8.598,0.487,10.592-3.368c32.013-61.861,38.665-128.826,40.027-151.274h26.894
	c0.194,3.124,0.493,7.126,0.948,11.856c6.522,67.669,26.578,131.147,69.439,184.511c2.622,3.264,5.182,6.58,7.496,10.072
	c0.081,0.122,0.165,0.24,0.251,0.356c1.337,1.783,2.839,3.216,4.309,4.472h-44.155c-19.662-31.134-34.493-68.407-44.073-110.898
	c-0.808-3.585-3.992-6.131-7.666-6.131c-3.675,0-6.858,2.546-7.666,6.131c-9.58,42.49-24.41,79.762-44.072,110.898H28.38
	c8.359-8.323,16.186-17.55,23.392-27.584c2.532-3.525,1.726-8.436-1.799-10.968c-3.524-2.531-8.434-1.726-10.968,1.799
	c-10.7,14.899-22.836,27.848-36.069,38.487c-2.599,2.089-3.596,5.59-2.489,8.735c1.108,3.145,4.079,5.249,7.413,5.249h69.734
	C77.593,437.924,172.435,437.924,172.456,437.924z M117.155,141.435L64.07,121.543l53.085-19.891V141.435z M91.697,422.206
	c13.589-23.191,24.74-49.32,33.317-78.06c8.579,28.742,19.729,54.871,33.318,78.06H91.697z"/>
</svg>